<mxfile host="app.diagrams.net" modified="2024-04-30T22:11:18.333Z" agent="Mozilla/5.0 (X11; Linux x86_64) AppleWebKit/537.36 (KHTML, like Gecko) Chrome/124.0.0.0 Safari/537.36" etag="etL18qS85FUtVwT5FzkW" version="24.3.1" type="device" pages="2">
  <diagram name="OLD" id="ZqrJ_23zCe6DwrdORcf6">
    <mxGraphModel dx="1647" dy="849" grid="1" gridSize="10" guides="1" tooltips="1" connect="1" arrows="1" fold="1" page="1" pageScale="1" pageWidth="827" pageHeight="1169" math="0" shadow="0">
      <root>
        <mxCell id="0" />
        <mxCell id="1" parent="0" />
        <mxCell id="lmjdraqhG0q6nObBBJ_i-1" value="" style="rounded=1;arcSize=10;dashed=0;fillColor=none;gradientColor=none;strokeWidth=2;" parent="1" vertex="1">
          <mxGeometry x="310" y="200" width="780" height="730" as="geometry" />
        </mxCell>
        <mxCell id="lmjdraqhG0q6nObBBJ_i-33" value="Private subnet" style="points=[[0,0],[0.25,0],[0.5,0],[0.75,0],[1,0],[1,0.25],[1,0.5],[1,0.75],[1,1],[0.75,1],[0.5,1],[0.25,1],[0,1],[0,0.75],[0,0.5],[0,0.25]];outlineConnect=0;gradientColor=none;html=1;whiteSpace=wrap;fontSize=12;fontStyle=0;container=1;pointerEvents=0;collapsible=0;recursiveResize=0;shape=mxgraph.aws4.group;grIcon=mxgraph.aws4.group_security_group;grStroke=0;strokeColor=#00A4A6;fillColor=#E6F6F7;verticalAlign=top;align=left;spacingLeft=30;fontColor=#147EBA;dashed=0;" parent="1" vertex="1">
          <mxGeometry x="445" y="460" width="385" height="460" as="geometry" />
        </mxCell>
        <mxCell id="lmjdraqhG0q6nObBBJ_i-39" style="edgeStyle=orthogonalEdgeStyle;rounded=0;orthogonalLoop=1;jettySize=auto;html=1;" parent="1" source="lmjdraqhG0q6nObBBJ_i-18" target="lmjdraqhG0q6nObBBJ_i-27" edge="1">
          <mxGeometry relative="1" as="geometry">
            <Array as="points">
              <mxPoint x="480" y="777" />
              <mxPoint x="480" y="777" />
            </Array>
          </mxGeometry>
        </mxCell>
        <mxCell id="lmjdraqhG0q6nObBBJ_i-18" value="Cluster" style="swimlane;" parent="1" vertex="1">
          <mxGeometry x="510" y="490" width="160" height="400" as="geometry" />
        </mxCell>
        <mxCell id="lmjdraqhG0q6nObBBJ_i-2" value="" style="dashed=0;html=1;shape=mxgraph.aws3.cloud;fillColor=#F58536;gradientColor=none;dashed=0;" parent="1" vertex="1">
          <mxGeometry x="370" y="180" width="52" height="36" as="geometry" />
        </mxCell>
        <mxCell id="lmjdraqhG0q6nObBBJ_i-12" style="edgeStyle=orthogonalEdgeStyle;rounded=0;orthogonalLoop=1;jettySize=auto;html=1;" parent="1" source="lmjdraqhG0q6nObBBJ_i-3" target="lmjdraqhG0q6nObBBJ_i-5" edge="1">
          <mxGeometry relative="1" as="geometry" />
        </mxCell>
        <mxCell id="lmjdraqhG0q6nObBBJ_i-3" value="Actor" style="shape=umlActor;verticalLabelPosition=bottom;verticalAlign=top;html=1;outlineConnect=0;" parent="1" vertex="1">
          <mxGeometry x="160" y="315" width="30" height="60" as="geometry" />
        </mxCell>
        <mxCell id="lmjdraqhG0q6nObBBJ_i-5" value="Amazon Route 53" style="sketch=0;outlineConnect=0;fontColor=#232F3E;gradientColor=none;strokeColor=#ffffff;fillColor=#232F3E;dashed=0;verticalLabelPosition=middle;verticalAlign=bottom;align=center;html=1;whiteSpace=wrap;fontSize=10;fontStyle=1;spacing=3;shape=mxgraph.aws4.productIcon;prIcon=mxgraph.aws4.route_53;" parent="1" vertex="1">
          <mxGeometry x="280" y="300" width="60" height="90" as="geometry" />
        </mxCell>
        <mxCell id="lmjdraqhG0q6nObBBJ_i-7" value="Public subnet" style="points=[[0,0],[0.25,0],[0.5,0],[0.75,0],[1,0],[1,0.25],[1,0.5],[1,0.75],[1,1],[0.75,1],[0.5,1],[0.25,1],[0,1],[0,0.75],[0,0.5],[0,0.25]];outlineConnect=0;gradientColor=none;html=1;whiteSpace=wrap;fontSize=12;fontStyle=0;container=1;pointerEvents=0;collapsible=0;recursiveResize=0;shape=mxgraph.aws4.group;grIcon=mxgraph.aws4.group_security_group;grStroke=0;strokeColor=#7AA116;fillColor=#F2F6E8;verticalAlign=top;align=left;spacingLeft=30;fontColor=#248814;dashed=0;" parent="1" vertex="1">
          <mxGeometry x="447" y="247" width="323" height="195" as="geometry" />
        </mxCell>
        <mxCell id="lmjdraqhG0q6nObBBJ_i-69" style="edgeStyle=orthogonalEdgeStyle;rounded=0;orthogonalLoop=1;jettySize=auto;html=1;entryX=0.5;entryY=0;entryDx=0;entryDy=0;" parent="1" source="lmjdraqhG0q6nObBBJ_i-6" target="lmjdraqhG0q6nObBBJ_i-18" edge="1">
          <mxGeometry relative="1" as="geometry" />
        </mxCell>
        <mxCell id="lmjdraqhG0q6nObBBJ_i-6" value="Application Load Balancer" style="sketch=0;outlineConnect=0;fontColor=#232F3E;gradientColor=none;strokeColor=#ffffff;fillColor=#232F3E;dashed=0;verticalLabelPosition=middle;verticalAlign=bottom;align=center;html=1;whiteSpace=wrap;fontSize=10;fontStyle=1;spacing=3;shape=mxgraph.aws4.productIcon;prIcon=mxgraph.aws4.application_load_balancer;" parent="1" vertex="1">
          <mxGeometry x="550" y="289.5" width="80" height="110" as="geometry" />
        </mxCell>
        <mxCell id="lmjdraqhG0q6nObBBJ_i-9" value="Amazon EC2&lt;div&gt;JUPITER&lt;/div&gt;" style="sketch=0;outlineConnect=0;fontColor=#232F3E;gradientColor=none;strokeColor=#ffffff;fillColor=#232F3E;dashed=0;verticalLabelPosition=middle;verticalAlign=bottom;align=center;html=1;whiteSpace=wrap;fontSize=10;fontStyle=1;spacing=3;shape=mxgraph.aws4.productIcon;prIcon=mxgraph.aws4.ec2;" parent="1" vertex="1">
          <mxGeometry x="670" y="290" width="70" height="100" as="geometry" />
        </mxCell>
        <mxCell id="lmjdraqhG0q6nObBBJ_i-11" style="edgeStyle=orthogonalEdgeStyle;rounded=0;orthogonalLoop=1;jettySize=auto;html=1;" parent="1" source="lmjdraqhG0q6nObBBJ_i-10" target="lmjdraqhG0q6nObBBJ_i-9" edge="1">
          <mxGeometry relative="1" as="geometry" />
        </mxCell>
        <mxCell id="lmjdraqhG0q6nObBBJ_i-10" value="DEVS" style="text;html=1;align=center;verticalAlign=middle;resizable=0;points=[];autosize=1;strokeColor=none;fillColor=none;" parent="1" vertex="1">
          <mxGeometry x="675" y="135" width="60" height="30" as="geometry" />
        </mxCell>
        <mxCell id="lmjdraqhG0q6nObBBJ_i-16" value="Amazon ECS" style="sketch=0;outlineConnect=0;fontColor=#232F3E;gradientColor=none;strokeColor=#ffffff;fillColor=#232F3E;dashed=0;verticalLabelPosition=middle;verticalAlign=bottom;align=center;html=1;whiteSpace=wrap;fontSize=10;fontStyle=1;spacing=3;shape=mxgraph.aws4.productIcon;prIcon=mxgraph.aws4.ecs;" parent="1" vertex="1">
          <mxGeometry x="488" y="489" width="36" height="70" as="geometry" />
        </mxCell>
        <mxCell id="lmjdraqhG0q6nObBBJ_i-30" style="edgeStyle=orthogonalEdgeStyle;rounded=0;orthogonalLoop=1;jettySize=auto;html=1;" parent="1" source="lmjdraqhG0q6nObBBJ_i-21" target="lmjdraqhG0q6nObBBJ_i-22" edge="1">
          <mxGeometry relative="1" as="geometry" />
        </mxCell>
        <mxCell id="lmjdraqhG0q6nObBBJ_i-21" value="Front Container" style="whiteSpace=wrap;html=1;" parent="1" vertex="1">
          <mxGeometry x="530" y="540" width="120" height="60" as="geometry" />
        </mxCell>
        <mxCell id="lmjdraqhG0q6nObBBJ_i-31" style="edgeStyle=orthogonalEdgeStyle;rounded=0;orthogonalLoop=1;jettySize=auto;html=1;" parent="1" source="lmjdraqhG0q6nObBBJ_i-22" target="lmjdraqhG0q6nObBBJ_i-21" edge="1">
          <mxGeometry relative="1" as="geometry" />
        </mxCell>
        <mxCell id="lmjdraqhG0q6nObBBJ_i-23" value="" style="outlineConnect=0;dashed=0;verticalLabelPosition=bottom;verticalAlign=top;align=center;html=1;shape=mxgraph.aws3.ec2_compute_container;fillColor=#F58534;gradientColor=none;" parent="1" vertex="1">
          <mxGeometry x="615" y="582" width="30" height="14.5" as="geometry" />
        </mxCell>
        <mxCell id="lmjdraqhG0q6nObBBJ_i-27" value="Amazon ECR&amp;nbsp;" style="sketch=0;outlineConnect=0;fontColor=#232F3E;gradientColor=none;strokeColor=#ffffff;fillColor=#232F3E;dashed=0;verticalLabelPosition=middle;verticalAlign=bottom;align=center;html=1;whiteSpace=wrap;fontSize=10;fontStyle=1;spacing=3;shape=mxgraph.aws4.productIcon;prIcon=mxgraph.aws4.ecr;" parent="1" vertex="1">
          <mxGeometry x="348" y="732" width="70" height="89" as="geometry" />
        </mxCell>
        <mxCell id="lmjdraqhG0q6nObBBJ_i-38" style="edgeStyle=orthogonalEdgeStyle;rounded=0;orthogonalLoop=1;jettySize=auto;html=1;" parent="1" source="lmjdraqhG0q6nObBBJ_i-5" target="lmjdraqhG0q6nObBBJ_i-6" edge="1">
          <mxGeometry relative="1" as="geometry" />
        </mxCell>
        <mxCell id="lmjdraqhG0q6nObBBJ_i-73" style="edgeStyle=orthogonalEdgeStyle;rounded=0;orthogonalLoop=1;jettySize=auto;html=1;" parent="1" source="lmjdraqhG0q6nObBBJ_i-40" target="lmjdraqhG0q6nObBBJ_i-41" edge="1">
          <mxGeometry relative="1" as="geometry" />
        </mxCell>
        <mxCell id="lmjdraqhG0q6nObBBJ_i-40" value="Amazon S3 RAW" style="sketch=0;outlineConnect=0;fontColor=#232F3E;gradientColor=none;strokeColor=#ffffff;fillColor=#232F3E;dashed=0;verticalLabelPosition=middle;verticalAlign=bottom;align=center;html=1;whiteSpace=wrap;fontSize=10;fontStyle=1;spacing=3;shape=mxgraph.aws4.productIcon;prIcon=mxgraph.aws4.s3;" parent="1" vertex="1">
          <mxGeometry x="870" y="710.5" width="50" height="80" as="geometry" />
        </mxCell>
        <mxCell id="lmjdraqhG0q6nObBBJ_i-41" value="Amazon S3 CONSUMED" style="sketch=0;outlineConnect=0;fontColor=#232F3E;gradientColor=none;strokeColor=#ffffff;fillColor=#232F3E;dashed=0;verticalLabelPosition=middle;verticalAlign=bottom;align=center;html=1;whiteSpace=wrap;fontSize=10;fontStyle=1;spacing=3;shape=mxgraph.aws4.productIcon;prIcon=mxgraph.aws4.s3;" parent="1" vertex="1">
          <mxGeometry x="1010" y="710.5" width="50" height="80" as="geometry" />
        </mxCell>
        <mxCell id="lmjdraqhG0q6nObBBJ_i-44" value="Tratamento imagens" style="outlineConnect=0;dashed=0;verticalLabelPosition=top;verticalAlign=bottom;align=center;html=1;shape=mxgraph.aws3.lambda_function;fillColor=#F58534;gradientColor=none;labelPosition=center;" parent="1" vertex="1">
          <mxGeometry x="953" y="700" width="29" height="32" as="geometry" />
        </mxCell>
        <mxCell id="lmjdraqhG0q6nObBBJ_i-58" value="Amazon S3 SALVAR MODELO" style="sketch=0;outlineConnect=0;fontColor=#232F3E;gradientColor=none;strokeColor=#ffffff;fillColor=#232F3E;dashed=0;verticalLabelPosition=middle;verticalAlign=bottom;align=center;html=1;whiteSpace=wrap;fontSize=10;fontStyle=1;spacing=3;shape=mxgraph.aws4.productIcon;prIcon=mxgraph.aws4.s3;" parent="1" vertex="1">
          <mxGeometry x="364" y="609" width="50" height="104" as="geometry" />
        </mxCell>
        <mxCell id="lmjdraqhG0q6nObBBJ_i-63" value="Amazon RDS" style="sketch=0;outlineConnect=0;fontColor=#232F3E;gradientColor=none;strokeColor=#ffffff;fillColor=#232F3E;dashed=0;verticalLabelPosition=middle;verticalAlign=bottom;align=center;html=1;whiteSpace=wrap;fontSize=10;fontStyle=1;spacing=3;shape=mxgraph.aws4.productIcon;prIcon=mxgraph.aws4.rds;" parent="1" vertex="1">
          <mxGeometry x="760" y="516.5" width="50" height="80" as="geometry" />
        </mxCell>
        <mxCell id="lmjdraqhG0q6nObBBJ_i-65" value="" style="group" parent="1" vertex="1" connectable="0">
          <mxGeometry x="530" y="810" width="120" height="60" as="geometry" />
        </mxCell>
        <mxCell id="lmjdraqhG0q6nObBBJ_i-51" value="Treinar modelo" style="whiteSpace=wrap;html=1;" parent="lmjdraqhG0q6nObBBJ_i-65" vertex="1">
          <mxGeometry width="120" height="60" as="geometry" />
        </mxCell>
        <mxCell id="lmjdraqhG0q6nObBBJ_i-52" value="" style="outlineConnect=0;dashed=0;verticalLabelPosition=bottom;verticalAlign=top;align=center;html=1;shape=mxgraph.aws3.ec2_compute_container;fillColor=#F58534;gradientColor=none;" parent="lmjdraqhG0q6nObBBJ_i-65" vertex="1">
          <mxGeometry x="85" y="42" width="30" height="14.5" as="geometry" />
        </mxCell>
        <mxCell id="lmjdraqhG0q6nObBBJ_i-53" value="" style="shape=image;html=1;verticalAlign=top;verticalLabelPosition=bottom;labelBackgroundColor=#ffffff;imageAspect=0;aspect=fixed;image=https://cdn1.iconfinder.com/data/icons/material-core/20/schedule-128.png" parent="lmjdraqhG0q6nObBBJ_i-65" vertex="1">
          <mxGeometry x="4" y="3" width="18" height="18" as="geometry" />
        </mxCell>
        <mxCell id="lmjdraqhG0q6nObBBJ_i-66" value="" style="group" parent="1" vertex="1" connectable="0">
          <mxGeometry x="530" y="720" width="120" height="60" as="geometry" />
        </mxCell>
        <mxCell id="lmjdraqhG0q6nObBBJ_i-47" value="Crawler container" style="whiteSpace=wrap;html=1;" parent="lmjdraqhG0q6nObBBJ_i-66" vertex="1">
          <mxGeometry width="120" height="60" as="geometry" />
        </mxCell>
        <mxCell id="lmjdraqhG0q6nObBBJ_i-48" value="" style="outlineConnect=0;dashed=0;verticalLabelPosition=bottom;verticalAlign=top;align=center;html=1;shape=mxgraph.aws3.ec2_compute_container;fillColor=#F58534;gradientColor=none;" parent="lmjdraqhG0q6nObBBJ_i-66" vertex="1">
          <mxGeometry x="85" y="42" width="30" height="14.5" as="geometry" />
        </mxCell>
        <mxCell id="lmjdraqhG0q6nObBBJ_i-50" value="" style="shape=image;html=1;verticalAlign=top;verticalLabelPosition=bottom;labelBackgroundColor=#ffffff;imageAspect=0;aspect=fixed;image=https://cdn1.iconfinder.com/data/icons/material-core/20/schedule-128.png" parent="lmjdraqhG0q6nObBBJ_i-66" vertex="1">
          <mxGeometry x="4" y="3" width="18" height="18" as="geometry" />
        </mxCell>
        <mxCell id="lmjdraqhG0q6nObBBJ_i-67" value="" style="group" parent="1" vertex="1" connectable="0">
          <mxGeometry x="530" y="631" width="120" height="60" as="geometry" />
        </mxCell>
        <mxCell id="lmjdraqhG0q6nObBBJ_i-22" value="Back container" style="whiteSpace=wrap;html=1;" parent="lmjdraqhG0q6nObBBJ_i-67" vertex="1">
          <mxGeometry width="120" height="60" as="geometry" />
        </mxCell>
        <mxCell id="lmjdraqhG0q6nObBBJ_i-24" value="" style="outlineConnect=0;dashed=0;verticalLabelPosition=bottom;verticalAlign=top;align=center;html=1;shape=mxgraph.aws3.ec2_compute_container;fillColor=#F58534;gradientColor=none;" parent="lmjdraqhG0q6nObBBJ_i-67" vertex="1">
          <mxGeometry x="86" y="43" width="30" height="14.5" as="geometry" />
        </mxCell>
        <mxCell id="lmjdraqhG0q6nObBBJ_i-68" style="edgeStyle=orthogonalEdgeStyle;rounded=0;orthogonalLoop=1;jettySize=auto;html=1;" parent="1" source="lmjdraqhG0q6nObBBJ_i-22" target="lmjdraqhG0q6nObBBJ_i-63" edge="1">
          <mxGeometry relative="1" as="geometry">
            <Array as="points">
              <mxPoint x="785" y="640" />
            </Array>
          </mxGeometry>
        </mxCell>
        <mxCell id="lmjdraqhG0q6nObBBJ_i-70" style="edgeStyle=orthogonalEdgeStyle;rounded=0;orthogonalLoop=1;jettySize=auto;html=1;" parent="1" source="lmjdraqhG0q6nObBBJ_i-22" target="lmjdraqhG0q6nObBBJ_i-40" edge="1">
          <mxGeometry relative="1" as="geometry">
            <Array as="points">
              <mxPoint x="810" y="670" />
              <mxPoint x="810" y="750" />
            </Array>
          </mxGeometry>
        </mxCell>
        <mxCell id="lmjdraqhG0q6nObBBJ_i-71" style="edgeStyle=orthogonalEdgeStyle;rounded=0;orthogonalLoop=1;jettySize=auto;html=1;" parent="1" source="lmjdraqhG0q6nObBBJ_i-47" target="lmjdraqhG0q6nObBBJ_i-40" edge="1">
          <mxGeometry relative="1" as="geometry">
            <Array as="points">
              <mxPoint x="820" y="750" />
              <mxPoint x="820" y="750" />
            </Array>
          </mxGeometry>
        </mxCell>
        <mxCell id="lmjdraqhG0q6nObBBJ_i-72" style="edgeStyle=orthogonalEdgeStyle;rounded=0;orthogonalLoop=1;jettySize=auto;html=1;" parent="1" source="lmjdraqhG0q6nObBBJ_i-51" target="lmjdraqhG0q6nObBBJ_i-41" edge="1">
          <mxGeometry relative="1" as="geometry">
            <Array as="points">
              <mxPoint x="1035" y="860" />
            </Array>
          </mxGeometry>
        </mxCell>
        <mxCell id="lmjdraqhG0q6nObBBJ_i-74" style="edgeStyle=orthogonalEdgeStyle;rounded=0;orthogonalLoop=1;jettySize=auto;html=1;" parent="1" source="lmjdraqhG0q6nObBBJ_i-22" target="lmjdraqhG0q6nObBBJ_i-58" edge="1">
          <mxGeometry relative="1" as="geometry" />
        </mxCell>
        <mxCell id="lmjdraqhG0q6nObBBJ_i-75" style="edgeStyle=orthogonalEdgeStyle;rounded=0;orthogonalLoop=1;jettySize=auto;html=1;" parent="1" source="lmjdraqhG0q6nObBBJ_i-51" target="lmjdraqhG0q6nObBBJ_i-58" edge="1">
          <mxGeometry relative="1" as="geometry">
            <Array as="points">
              <mxPoint x="320" y="840" />
              <mxPoint x="320" y="661" />
            </Array>
          </mxGeometry>
        </mxCell>
      </root>
    </mxGraphModel>
  </diagram>
  <diagram id="CHJFgXz6-l2swV95Oxjh" name="NEW">
    <mxGraphModel dx="1434" dy="747" grid="1" gridSize="10" guides="1" tooltips="1" connect="1" arrows="1" fold="1" page="1" pageScale="1" pageWidth="827" pageHeight="1169" math="0" shadow="0">
      <root>
        <mxCell id="0" />
        <mxCell id="1" parent="0" />
        <mxCell id="oIhGREhywNbi6ACfQCjA-1" value="" style="rounded=1;arcSize=10;dashed=0;fillColor=none;gradientColor=none;strokeWidth=2;" vertex="1" parent="1">
          <mxGeometry x="210" y="290" width="830" height="700" as="geometry" />
        </mxCell>
        <mxCell id="oIhGREhywNbi6ACfQCjA-2" value="" style="dashed=0;html=1;shape=mxgraph.aws3.cloud;fillColor=#F58536;gradientColor=none;dashed=0;" vertex="1" parent="1">
          <mxGeometry x="230" y="270" width="52" height="36" as="geometry" />
        </mxCell>
        <mxCell id="oIhGREhywNbi6ACfQCjA-6" style="edgeStyle=orthogonalEdgeStyle;rounded=0;orthogonalLoop=1;jettySize=auto;html=1;" edge="1" parent="1" source="oIhGREhywNbi6ACfQCjA-4" target="oIhGREhywNbi6ACfQCjA-5">
          <mxGeometry relative="1" as="geometry" />
        </mxCell>
        <mxCell id="oIhGREhywNbi6ACfQCjA-4" value="Actor" style="shape=umlActor;verticalLabelPosition=bottom;verticalAlign=top;html=1;outlineConnect=0;" vertex="1" parent="1">
          <mxGeometry x="70" y="415" width="30" height="60" as="geometry" />
        </mxCell>
        <mxCell id="oIhGREhywNbi6ACfQCjA-5" value="NO-IP" style="shape=image;verticalLabelPosition=bottom;labelBackgroundColor=default;verticalAlign=top;aspect=fixed;imageAspect=0;image=https://d2qr50rz2oof04.cloudfront.net/assets/img/logo/logo-bug.png;" vertex="1" parent="1">
          <mxGeometry x="180" y="420" width="50" height="50" as="geometry" />
        </mxCell>
        <mxCell id="oIhGREhywNbi6ACfQCjA-7" value="VPC" style="sketch=0;outlineConnect=0;gradientColor=none;html=1;whiteSpace=wrap;fontSize=12;fontStyle=0;shape=mxgraph.aws4.group;grIcon=mxgraph.aws4.group_vpc;strokeColor=#B6BABF;fillColor=none;verticalAlign=top;align=left;spacingLeft=30;fontColor=#B6BABF;dashed=0;" vertex="1" parent="1">
          <mxGeometry x="260" y="330" width="710" height="320" as="geometry" />
        </mxCell>
      </root>
    </mxGraphModel>
  </diagram>
</mxfile>
